<?xml version="1.0" standalone="no"?>
<!DOCTYPE svg PUBLIC "-//W3C//DTD SVG 20010904//EN"
 "http://www.w3.org/TR/2001/REC-SVG-20010904/DTD/svg10.dtd">
<svg version="1.0" xmlns="http://www.w3.org/2000/svg"
 width="300.000000pt" height="221.000000pt" viewBox="0 0 300.000000 221.000000"
 preserveAspectRatio="xMidYMid meet">

<g transform="translate(0.000000,221.000000) scale(0.100000,-0.100000)"
fill="#000000" stroke="none">
<path d="M1104 2176 c-28 -13 -64 -40 -79 -59 -54 -72 -54 -76 -54 -739 l1
-611 24 -23 c29 -30 39 -30 69 1 l25 24 0 291 0 290 218 0 217 0 199 -306
c109 -167 207 -309 217 -314 45 -25 94 32 69 80 -23 44 -393 605 -413 628 -20
22 -24 22 -264 22 l-243 0 0 273 c0 252 2 274 20 304 30 50 64 55 325 51 217
-3 233 -4 283 -27 66 -30 144 -113 166 -177 20 -60 21 -157 0 -216 -8 -26 -38
-72 -65 -103 -53 -61 -59 -83 -31 -108 33 -30 66 -21 116 33 154 165 150 412
-9 579 -39 41 -77 68 -128 92 l-72 34 -270 3 c-268 3 -270 2 -321 -22z"/>
<path d="M529 483 c-48 -29 -53 -49 -57 -197 -5 -161 5 -205 49 -237 24 -17
40 -20 80 -17 93 9 109 45 106 253 -2 154 -8 174 -63 200 -41 19 -82 19 -115
-2z m123 -35 c9 -7 19 -29 22 -48 l5 -35 -16 38 c-8 20 -22 37 -29 37 -7 0
-16 5 -19 10 -9 14 18 12 37 -2z m-135 -30 c-3 -8 -6 -5 -6 6 -1 11 2 17 5 13
3 -3 4 -12 1 -19z m96 0 c14 -11 17 -35 18 -157 1 -149 -2 -160 -43 -161 -40
0 -48 25 -48 161 0 116 2 131 20 149 23 23 30 24 53 8z m-102 -125 c-3 -120
-11 -119 -11 2 0 54 3 95 6 92 4 -4 6 -46 5 -94z m166 -25 c-3 -8 -6 -5 -6 6
-1 11 2 17 5 13 3 -3 4 -12 1 -19z m-2 -147 c-3 -16 -16 -36 -29 -44 -28 -19
-84 -28 -92 -16 -3 5 10 9 28 9 44 0 75 23 83 61 4 17 9 28 12 25 3 -2 2 -18
-2 -35z m-135 -42 c0 -6 -4 -7 -10 -4 -5 3 -10 11 -10 16 0 6 5 7 10 4 6 -3
10 -11 10 -16z"/>
<path d="M574 405 c-18 -12 -20 -27 -22 -129 -1 -64 3 -126 8 -138 6 -16 9 21
9 115 1 132 2 138 23 146 12 4 17 11 11 14 -5 3 -19 0 -29 -8z"/>
<path d="M841 487 c-13 -6 -33 -24 -44 -39 -18 -24 -20 -43 -20 -176 -1 -165
7 -198 52 -225 68 -40 150 -10 172 61 17 58 9 86 -25 90 -34 4 -46 -10 -46
-55 0 -27 -5 -34 -26 -39 -44 -11 -54 10 -55 121 -1 182 -1 183 22 195 33 18
69 -11 69 -56 0 -34 1 -35 33 -32 28 3 32 7 35 34 5 51 -22 103 -62 119 -43
18 -73 19 -105 2z m57 -22 c-8 -8 -68 -25 -68 -19 0 6 41 23 59 23 8 1 12 -1
9 -4z m43 -12 c13 -15 12 -15 -8 -4 -24 12 -29 21 -14 21 5 0 15 -7 22 -17z
m-130 -100 c-9 -15 -10 -14 -7 7 3 14 5 32 7 40 1 8 4 5 6 -7 2 -12 0 -30 -6
-40z m166 15 c-3 -8 -6 -5 -6 6 -1 11 2 17 5 13 3 -3 4 -12 1 -19z m-160 -180
c-2 -13 -4 -5 -4 17 -1 22 1 32 4 23 2 -10 2 -28 0 -40z m161 -68 c-13 -39
-38 -58 -80 -65 -31 -5 -39 -2 -62 25 -15 18 -26 43 -25 58 1 25 2 24 9 -6 7
-31 32 -60 55 -63 56 -8 95 23 95 75 0 22 3 27 9 17 5 -8 5 -25 -1 -41z"/>
<path d="M1124 481 c-45 -28 -54 -66 -54 -223 0 -148 8 -182 52 -212 26 -19
90 -21 121 -5 53 27 57 42 57 221 l0 168 -28 31 c-36 41 -102 50 -148 20z
m128 -38 c19 -23 32 -73 18 -73 -5 0 -10 11 -10 24 0 15 -11 32 -27 45 -19 14
-23 20 -12 21 9 0 23 -8 31 -17z m-141 -26 c-10 -9 -11 -8 -5 6 3 10 9 15 12
12 3 -3 0 -11 -7 -18z m100 3 c17 -10 19 -23 19 -153 0 -150 -5 -167 -45 -167
-40 0 -45 17 -45 161 0 131 1 139 22 153 27 19 24 19 49 6z m-100 -137 c-3
-133 -11 -132 -11 2 0 60 3 105 6 102 4 -3 6 -50 5 -104z m154 -173 c-8 -16
-23 -34 -34 -39 -27 -15 -70 -21 -76 -10 -4 5 10 9 29 9 38 0 76 28 76 55 0 8
5 15 10 15 6 0 4 -13 -5 -30z m-134 -27 c13 -16 12 -17 -3 -4 -10 7 -18 15
-18 17 0 8 8 3 21 -13z"/>
<path d="M1166 404 c-13 -12 -16 -40 -16 -144 0 -71 4 -131 8 -134 5 -3 8 52
7 121 -2 111 0 128 16 144 11 11 19 21 19 24 0 10 -19 4 -34 -11z"/>
<path d="M2811 491 c-56 -15 -89 -117 -57 -178 8 -17 42 -51 73 -75 62 -47 77
-83 53 -128 -22 -42 -60 -12 -60 49 0 36 -5 40 -49 33 l-33 -5 5 -51 c8 -66
48 -106 107 -106 54 0 86 17 105 55 35 75 10 144 -76 210 -43 33 -55 48 -57
74 -4 37 12 61 39 61 18 0 25 -15 31 -70 3 -21 8 -25 38 -25 34 0 35 1 38 40
6 89 -65 142 -157 116z m124 -103 l5 -33 -10 32 c-14 43 -57 76 -90 68 -16 -4
-22 -3 -15 3 6 6 21 12 35 14 32 4 68 -37 75 -84z m-131 37 c-4 -8 -11 -15
-16 -15 -6 0 -5 6 2 15 7 8 14 15 16 15 2 0 1 -7 -2 -15z m20 -125 c15 -17 41
-37 57 -46 36 -18 59 -62 59 -112 0 -53 -29 -83 -78 -80 l-37 1 35 4 c45 6 56
16 64 57 10 53 -10 89 -79 145 -57 45 -65 56 -64 84 1 32 1 32 8 4 3 -15 19
-41 35 -57z m-25 -205 c0 -5 -6 -1 -14 9 -8 11 -15 31 -14 45 0 24 2 23 14 -9
7 -19 14 -39 14 -45z"/>
<path d="M7 483 c-4 -3 -7 -105 -7 -225 l0 -218 35 0 35 0 0 79 c0 86 9 102
50 91 24 -6 25 -10 28 -85 3 -69 6 -82 26 -96 13 -10 33 -15 49 -12 l26 5 -4
85 c-2 47 -7 88 -10 92 -4 3 -5 -32 -4 -79 l4 -85 -30 -2 c-20 -1 -23 0 -7 4
21 4 22 9 22 92 0 52 -5 92 -12 99 -8 8 -8 15 0 25 18 21 25 117 13 163 -16
59 -44 74 -134 74 -41 0 -77 -3 -80 -7z m93 -22 c0 -5 -12 -11 -26 -13 -21 -2
-28 -9 -30 -32 -5 -44 -16 -46 -12 -1 3 35 7 41 33 46 17 4 31 7 33 8 1 0 2
-3 2 -8z m85 -22 c11 -17 -1 -21 -15 -4 -8 9 -8 15 -2 15 6 0 14 -5 17 -11z
m-31 -50 c5 -14 6 -42 2 -61 -6 -31 -11 -37 -39 -41 -17 -2 -35 -3 -39 0 -10
5 -10 117 -1 127 4 4 21 6 37 4 23 -2 33 -10 40 -29z m49 -6 c3 -15 1 -36 -3
-47 -8 -20 -9 -19 -10 4 0 14 -3 35 -6 48 -4 12 -2 22 4 22 5 0 12 -12 15 -27z
m-153 -105 c0 -33 -17 -19 -18 14 -1 23 2 28 8 18 6 -8 10 -23 10 -32z m136 5
c-10 -10 -19 5 -10 18 6 11 8 11 12 0 2 -7 1 -15 -2 -18z m-6 -47 c0 -5 -7 -3
-15 4 -8 6 -20 9 -27 5 -7 -4 -4 1 6 9 16 13 22 13 28 3 4 -6 8 -16 8 -21z
m-60 14 c0 -5 -15 -9 -32 -9 l-33 1 30 8 c17 4 31 8 33 9 1 0 2 -3 2 -9z m-70
-10 c0 -5 -5 -10 -11 -10 -5 0 -7 5 -4 10 3 6 8 10 11 10 2 0 4 -4 4 -10z
m137 -147 c-2 -21 -4 -6 -4 32 0 39 2 55 4 38 2 -18 2 -50 0 -70z"/>
<path d="M80 355 c0 -30 5 -55 10 -55 6 0 10 22 10 49 0 39 4 51 18 54 10 3 6
5 -10 6 -27 1 -28 0 -28 -54z"/>
<path d="M319 428 c-1 -67 -1 -288 0 -349 1 -41 20 -55 52 -39 18 10 19 22 17
228 l-3 217 -32 3 -33 3 -1 -63z m36 -18 c-2 -70 -15 -76 -15 -7 0 31 4 57 8
57 5 0 8 -22 7 -50z m5 -85 c0 -8 -4 -15 -10 -15 -5 0 -10 7 -10 15 0 8 5 15
10 15 6 0 10 -7 10 -15z m-2 -70 c0 -25 -4 -45 -8 -45 -6 0 -7 78 -1 88 7 12
11 -6 9 -43z m2 -153 c0 -26 -4 -41 -10 -37 -5 3 -10 30 -10 58 0 37 3 48 10
37 5 -8 10 -34 10 -58z"/>
<path d="M1390 266 c0 -239 1 -242 49 -229 20 5 21 12 22 122 l1 116 13 -60
c8 -33 19 -86 26 -118 l12 -58 36 3 36 3 21 100 c29 143 32 144 33 13 l1 -118
26 -6 c14 -4 30 -2 35 3 5 5 8 100 7 229 l-3 219 -33 0 -34 0 -39 -125 c-22
-69 -42 -132 -45 -140 -7 -16 -13 0 -64 168 l-31 102 -34 0 -35 0 0 -224z
m290 178 c0 -8 -4 -12 -10 -9 -5 3 -19 -28 -31 -70 -12 -41 -24 -73 -26 -71
-3 3 3 31 12 63 22 77 55 129 55 87z m-232 -12 c-2 -21 3 -42 15 -54 12 -13
25 -79 13 -67 -4 3 -15 30 -26 60 -10 30 -24 53 -29 52 -6 -2 -8 4 -5 11 5 14
34 11 32 -2z m229 -74 c-2 -13 -4 -5 -4 17 -1 22 1 32 4 23 2 -10 2 -28 0 -40z
m-247 7 c0 -19 -4 -35 -8 -35 -4 0 -6 16 -4 35 2 19 6 35 8 35 2 0 4 -16 4
-35z m61 -82 c13 -16 12 -17 -3 -4 -17 13 -22 21 -14 21 2 0 10 -8 17 -17z
m16 -55 c-3 -8 -6 -5 -6 6 -1 11 2 17 5 13 3 -3 4 -12 1 -19z m179 -73 c1 -52
-2 -93 -5 -90 -15 9 -13 185 2 185 1 0 3 -43 3 -95z m-259 33 c-3 -8 -6 -5 -6
6 -1 11 2 17 5 13 3 -3 4 -12 1 -19z m149 -49 c-9 -22 -14 -44 -11 -49 3 -4
-1 -10 -8 -13 -7 -3 -12 4 -12 17 -1 11 -5 32 -9 46 -8 24 -8 24 7 5 15 -20
16 -19 26 8 6 16 11 34 12 40 0 8 2 8 6 -1 3 -7 -2 -31 -11 -53z m-149 -16
c-3 -10 -5 -4 -5 12 0 17 2 24 5 18 2 -7 2 -21 0 -30z"/>
<path d="M1809 438 c-1 -138 3 -393 7 -399 2 -4 16 -4 32 0 26 7 27 9 30 89 2
45 6 82 10 83 94 9 115 21 138 76 28 66 10 154 -39 186 -19 12 -47 17 -102 17
l-75 0 -1 -52z m156 13 c11 -5 -9 -6 -47 -3 l-68 5 0 -42 c0 -22 -3 -41 -7
-41 -7 0 -9 65 -4 85 2 8 104 4 126 -4z m-11 -53 c34 -48 3 -123 -47 -116 -20
3 -22 10 -25 71 l-3 67 30 0 c20 0 35 -8 45 -22z m53 -40 c-3 -8 -6 -5 -6 6
-1 11 2 17 5 13 3 -3 4 -12 1 -19z m-8 -61 c-14 -52 -47 -71 -105 -62 -34 5
-49 3 -56 -7 -8 -10 -9 -10 -5 2 2 11 23 16 73 20 l69 5 14 43 c16 52 25 51
10 -1z m-152 -29 c-3 -8 -6 -5 -6 6 -1 11 2 17 5 13 3 -3 4 -12 1 -19z m0
-135 c-3 -10 -5 -2 -5 17 0 19 2 27 5 18 2 -10 2 -26 0 -35z m0 -65 c-3 -8 -6
-5 -6 6 -1 11 2 17 5 13 3 -3 4 -12 1 -19z"/>
<path d="M1892 353 l1 -58 6 49 c4 37 11 51 26 57 17 7 16 8 -7 8 -28 1 -28 0
-26 -56z"/>
<path d="M2110 265 l0 -225 35 0 35 0 0 84 c0 90 5 98 50 86 24 -5 25 -10 30
-90 3 -60 9 -85 18 -84 6 1 21 2 32 3 18 1 20 8 20 75 0 41 -5 87 -10 101 -7
18 -7 33 1 47 16 30 16 137 1 174 -18 42 -49 54 -137 54 l-75 0 0 -225z m90
195 c0 -5 -11 -10 -24 -10 -21 0 -25 -6 -29 -35 l-4 -35 1 37 c1 31 5 38 26
44 14 4 26 7 28 8 1 1 2 -3 2 -9z m37 -6 c-3 -3 -12 -4 -19 -1 -8 3 -5 6 6 6
11 1 17 -2 13 -5z m66 -51 c9 -28 12 -53 7 -62 -6 -11 -10 0 -15 34 -4 28 -12
56 -17 63 -7 8 -7 12 0 12 5 0 17 -21 25 -47z m-48 -47 c0 -57 -1 -60 -29 -67
-16 -5 -33 -6 -38 -3 -10 6 -11 118 -1 128 4 4 21 6 38 4 30 -3 30 -4 30 -62z
m-102 -55 c2 -10 1 -25 -4 -32 -6 -10 -9 -4 -9 19 0 36 5 42 13 13z m138 -8
c-12 -20 -14 -14 -5 12 4 9 9 14 11 11 3 -2 0 -13 -6 -23z m-14 -30 c-4 -3 -2
-12 4 -20 8 -9 8 -13 1 -13 -6 0 -14 5 -17 10 -4 6 -12 8 -18 4 -7 -3 -3 2 7
10 19 16 36 22 23 9z m-47 -13 c0 -5 -15 -9 -32 -9 l-33 1 30 8 c17 4 31 8 33
9 1 0 2 -3 2 -9z m-70 -9 c0 -6 -4 -13 -10 -16 -5 -3 -10 1 -10 9 0 9 5 16 10
16 6 0 10 -4 10 -9z m137 -148 c-2 -21 -4 -6 -4 32 0 39 2 55 4 38 2 -18 2
-50 0 -70z m-150 -15 c-3 -7 -5 -2 -5 12 0 14 2 19 5 13 2 -7 2 -19 0 -25z"/>
<path d="M2192 353 l1 -58 6 49 c4 37 11 51 26 57 17 7 16 8 -7 8 -28 1 -28 0
-26 -56z"/>
<path d="M2500 449 c-29 -105 -90 -376 -90 -397 0 -19 4 -22 28 -16 25 7 37
17 45 37 3 10 102 17 114 8 4 -3 13 -15 19 -26 13 -23 33 -29 52 -17 11 7 8
31 -12 120 -27 114 -31 141 -16 107 16 -37 10 8 -10 80 -11 39 -18 55 -15 38
3 -18 7 -48 10 -65 2 -18 -7 13 -22 70 l-27 102 -33 0 c-29 0 -33 -4 -43 -41z
m60 -10 c0 -5 -4 -7 -10 -4 -5 3 -10 1 -10 -4 0 -6 -4 -11 -10 -11 -5 0 -7 7
-4 15 7 17 34 21 34 4z m7 -41 c-3 -8 -6 -5 -6 6 -1 11 2 17 5 13 3 -3 4 -12
1 -19z m21 -93 l1 -20 -9 20 c-5 11 -8 31 -8 45 l0 25 8 -25 c4 -14 8 -34 8
-45z m-93 -35 c-10 -33 -20 -58 -23 -55 -3 3 3 32 14 64 10 33 21 58 23 55 2
-2 -4 -31 -14 -64z m70 -25 c9 -41 17 -78 16 -82 -1 -11 -69 -15 -75 -5 -3 5
-1 24 4 43 5 19 14 53 20 77 6 23 13 42 15 42 2 0 11 -34 20 -75z m78 -155 c6
-35 6 -35 -7 -7 -7 15 -14 25 -17 23 -3 -3 -18 -1 -35 3 l-29 9 34 1 c31 1 33
3 28 30 -16 77 -15 82 2 31 10 -30 21 -71 24 -90z m-182 56 c-10 -25 -10 -26
32 -28 l42 -1 -41 -4 c-33 -3 -43 -9 -52 -31 l-11 -27 6 30 c7 44 24 97 29 92
3 -2 0 -16 -5 -31z"/>
<path d="M2531 240 c-7 -25 -14 -50 -16 -57 -2 -7 0 -15 4 -18 10 -6 35 88 28
107 -2 7 -10 -7 -16 -32z"/>
<path d="M402 259 c-2 -212 -2 -217 -24 -232 -16 -11 -18 -16 -8 -16 39 -1 40
8 37 240 l-2 224 -3 -216z"/>
<path d="M1722 256 c-2 -195 -4 -220 -19 -232 -17 -13 -17 -13 0 -14 10 0 20
6 23 13 2 7 3 111 1 232 l-2 220 -3 -219z"/>
<path d="M2601 434 c0 -11 3 -14 6 -6 3 7 2 16 -1 19 -3 4 -6 -2 -5 -13z"/>
<path d="M1311 258 l-1 -168 -28 -31 c-18 -20 -42 -34 -68 -39 l-39 -8 35 -1
c48 -1 82 18 102 59 15 29 18 61 17 175 0 77 -4 149 -9 160 -5 12 -9 -45 -9
-147z"/>
<path d="M2344 345 c-1 -45 -6 -81 -14 -90 -15 -19 -5 -34 12 -17 15 15 23
129 11 159 -5 15 -8 -1 -9 -52z"/>
<path d="M2834 395 c-10 -41 0 -48 17 -11 13 29 14 36 3 36 -8 0 -16 -11 -20
-25z"/>
<path d="M867 403 c-4 -3 -6 -70 -5 -147 l2 -141 3 120 c3 141 7 162 31 168
14 4 13 5 -4 6 -11 0 -24 -2 -27 -6z"/>
<path d="M2979 370 c-3 -37 -8 -45 -29 -51 -23 -7 -23 -7 6 -8 38 -1 44 11 34
64 l-7 40 -4 -45z"/>
<path d="M242 354 c-1 -28 -7 -65 -13 -83 -14 -40 -4 -54 11 -16 6 16 9 56 7
89 -3 61 -3 61 -5 10z"/>
<path d="M720 248 l-5 -158 -32 -31 c-18 -19 -47 -35 -70 -39 l-38 -8 42 -1
c52 -1 100 35 108 82 3 18 5 95 3 172 l-3 140 -5 -157z"/>
<path d="M1018 363 c-3 -33 -7 -39 -33 -44 -29 -6 -29 -7 8 -8 l37 -1 0 45 c0
55 -8 59 -12 8z"/>
<path d="M2052 352 c-4 -90 -40 -134 -119 -147 l-43 -7 0 -80 c0 -71 -2 -80
-20 -85 -11 -3 -20 -10 -20 -15 0 -6 7 -7 16 -4 9 3 20 6 25 6 5 0 9 38 9 84
l0 83 45 7 c25 3 55 10 65 16 34 18 51 65 47 128 -3 47 -4 50 -5 14z"/>
<path d="M2651 224 c0 -11 3 -14 6 -6 3 7 2 16 -1 19 -3 4 -6 -2 -5 -13z"/>
<path d="M80 116 c0 -78 -2 -84 -22 -89 -12 -4 -19 -9 -16 -13 12 -12 46 7 52
29 3 12 6 50 6 84 0 50 3 62 18 66 10 3 6 5 -10 6 l-28 1 0 -84z"/>
<path d="M2190 116 c0 -78 -2 -84 -22 -89 -12 -4 -19 -9 -16 -13 4 -3 16 -3
27 1 19 6 21 14 21 86 0 73 2 80 23 89 21 8 21 9 -5 9 l-28 1 0 -84z"/>
<path d="M2341 118 c-1 -87 -1 -88 -27 -88 -14 0 -23 -4 -20 -8 3 -5 18 -7 33
-5 l29 5 -4 71 c-5 111 -9 121 -11 25z"/>
<path d="M2661 184 c0 -11 3 -14 6 -6 3 7 2 16 -1 19 -3 4 -6 -2 -5 -13z"/>
<path d="M2981 152 c-2 -80 -37 -123 -110 -133 l-46 -6 48 -2 c27 0 57 4 68 9
36 20 66 112 48 155 -6 15 -8 9 -8 -23z"/>
<path d="M1018 137 c-13 -79 -44 -110 -123 -120 -22 -3 -19 -4 13 -6 82 -2
126 45 120 130 l-3 44 -7 -48z"/>
<path d="M1472 103 c-2 -66 -4 -73 -22 -73 -11 0 -20 -5 -20 -11 0 -9 36 -4
48 6 2 1 1 36 -1 76 l-3 74 -2 -72z"/>
<path d="M2832 150 c0 -14 2 -19 5 -12 2 6 2 18 0 25 -3 6 -5 1 -5 -13z"/>
<path d="M1616 135 c-20 -84 -28 -105 -41 -105 -8 0 -15 -4 -15 -10 0 -12 20
-13 37 -2 14 9 36 103 30 129 -3 13 -6 9 -11 -12z"/>
<path d="M2671 144 c0 -11 3 -14 6 -6 3 7 2 16 -1 19 -3 4 -6 -2 -5 -13z"/>
<path d="M2687 82 c4 -35 1 -46 -14 -57 -17 -14 -17 -14 0 -15 25 0 31 24 19
73 l-11 42 6 -43z"/>
<path d="M2560 70 c-12 -8 -11 -10 8 -10 12 0 22 5 22 10 0 13 -11 13 -30 0z"/>
<path d="M2485 50 c-3 -11 -15 -20 -26 -20 -10 0 -19 -4 -19 -10 0 -12 2 -12
34 0 14 5 26 16 26 24 0 8 8 17 18 19 13 4 12 5 -5 6 -14 1 -24 -6 -28 -19z"/>
</g>
</svg>
